PathFileType	4	(X/Y/Z)	pose_F01_0-96.trc
DataRate	CameraRate	NumFrames	NumMarkers	Units	OrigDataRate	OrigDataStartFrame	OrigNumFrames
30	30	5	21	m	30	84	96
Frame#	Time	CHip			RHip			RKnee			RAnkle			RBigToe			RSmallToe			RHeel			LHip			LKnee			LAnkle			LBigToe			LSmallToe			LHeel			Neck			Nose			RShoulder			RElbow			RWrist			LShoulder			LElbow			LWrist			
		X1	Y1	Z1	X2	Y2	Z2	X3	Y3	Z3	X4	Y4	Z4	X5	Y5	Z5	X6	Y6	Z6	X7	Y7	Z7	X8	Y8	Z8	X9	Y9	Z9	X10	Y10	Z10	X11	Y11	Z11	X12	Y12	Z12	X13	Y13	Z13	X14	Y14	Z14	X15	Y15	Z15	X16	Y16	Z16	X17	Y17	Z17	X18	Y18	Z18	X19	Y19	Z19	X20	Y20	Z20	X21	Y21	Z21	
84	2.8	-0.1356296428170277	1.8720104946180816	-0.4749556388526341	-0.14914188507959936	1.8676513431438986	-0.4093502150627959	-0.1327932145862176	1.7421114913669393	-0.38137882257481276	-0.12766147624658136	1.6056537549410674	-0.3644695238657362							-0.11418520949536619	1.5978220617738927	-0.3418060941140557	-0.11986820658207573	1.8745391055500482	-0.5367050079916272	-0.10472755375340374	1.7420284194504088	-0.561946644143757	-0.09782445869701883	1.6071648391227733	-0.5947204826157247	-0.12599787605361695	1.565190847596798	-0.6264834355466433	-0.25389437365776046	1.5056848038223285	-1.210874099051086	-0.09287897751048732	1.5970092061536079	-0.5941815200921897	-0.13260901951040063	2.028839602435374	-0.4829381362421911	-0.15481339560182514	2.1013756775367427	-0.5341624118312285	-0.15750640348771885	2.0248734231706176	-0.40602974875439446	-0.16659943159154864	1.9425719484724167	-0.37975801673621273	-0.1887678619316734	1.866771538141837	-0.37561106638400404	-0.10817793899305138	2.0316759668866684	-0.5693295173765988	-0.09537616661653467	1.9534600603928982	-0.5843683455060446	-0.09500611919264078	1.882195460629234	-0.6299376905339379
85	2.8333333333333335	-0.13383250917846257	1.8710240404547105	-0.4770022483373824	-0.1474151931057631	1.8678542923280255	-0.41166264373850253	-0.13173829105629306	1.7420182026057196	-0.3779323601254097	-0.12766147624658136	1.6056537549410674	-0.3644695238657362							-0.11415099242501646	1.5979233734881888	-0.34109245252447756	-0.11720989304825476	1.8735278894855394	-0.5357494497927214	-0.10279537024083217	1.7410442953472178	-0.5638294056395067	-0.09840014207229891	1.605729216056007	-0.5981331946469068	-0.12790990187426826	1.5663959512229206	-0.6248924211576316	-0.11178104827192661	1.5753657474095615	-0.6465460806907518	-0.09258687140103396	1.5978987317663238	-0.5947803906821962	-0.1326556081540739	2.028752639702668	-0.4829975374696267	-0.1566553915629868	2.1024661076002533	-0.5317778361025399	-0.15757032082502637	2.0261706664077597	-0.40671469953379363	-0.16483801179297614	1.9400040076916978	-0.38128603446785175	-0.1914664234603127	1.8692195031124494	-0.377190548675652	-0.11017336070714677	2.031598639570942	-0.5671291169782381	-0.09452864946788324	1.9509906086895168	-0.5807592998521803	-0.09464632052654452	1.8806812633137626	-0.6176816902080069
86	2.8666666666666667	-0.1346573963664377	1.87362922850352	-0.48068263884894874	-0.14638475441001073	1.8693449485506917	-0.4175004579781204	-0.13285309365883904	1.7434287729884208	-0.38142653004321897	-0.12766147624658136	1.6056537549410674	-0.3644695238657362							-0.11411677535466674	1.5980246852024846	-0.34037881093489936	-0.11797891203243069	1.8763261977761991	-0.5393394143311148	-0.10504821052691385	1.7421891097357083	-0.5615226158258858	-0.0981628941062651	1.6070891379390881	-0.5987166185350629	-0.12577790766540445	1.5665574717570296	-0.6271481853953047	-0.11187800984811812	1.576181475006229	-0.6465789617644786	-0.09436266998332803	1.5988876552764753	-0.5931240914379258	-0.1326281314124511	2.0288148375656636	-0.4829825257784521	-0.15581530401626453	2.1038830566437787	-0.5293484127588547	-0.15561754994343072	2.0250529851214796	-0.40825184575861445	-0.16470146730777588	1.9426069278285214	-0.3817080970633491	-0.18942690478350602	1.872008134538659	-0.37097630830603867	-0.11019807032660475	2.031654482991125	-0.5671542654549727	-0.09824768300496323	1.9523853253071297	-0.5852529220742434	-0.09751009450061651	1.8801239215020074	-0.6064857327699841
87	2.9	-0.13448519745801074	1.870959158525525	-0.48019887354673974	-0.1490611491412536	1.8680183937909245	-0.4183597281746906	-0.13134937358664636	1.7420407986639526	-0.37827627139101666	-0.12766147624658136	1.6056537549410674	-0.3644695238657362							-0.11408255828431701	1.5981259969167807	-0.3396651693453212	-0.11991245267428835	1.874710301022859	-0.5368617763943394	-0.10482238720463175	1.7433122251126298	-0.5620488233189271	-0.09867660221734462	1.6044316861776458	-0.597549429476754	-0.1269329457568958	1.5653309235016843	-0.6298510686266229	-0.11256950546349229	1.5751899180711966	-0.6498426557485211	-0.09496615367474442	1.5966896741861312	-0.5919461564452155	-0.1334715582682015	2.028891548129518	-0.4861370047367222	-0.15581611692098185	2.1039294235509782	-0.5293445886899267	-0.15375374673077039	2.0250991040673605	-0.4104508118878183	-0.16369956826350135	1.942365108699636	-0.3785964075938846	-0.19044241098872167	1.870720069976049	-0.37426657623188037	-0.11101195721502495	2.0317871330952046	-0.5701869523547441	-0.09737173640876808	1.9511523244154012	-0.5816273739265769	-0.09966107245967647	1.8800488791918246	-0.6039734296478936
88	2.933333333333333	-0.13448007549007876	1.8708932170438979	-0.48038476592461127	-0.1480953340401033	1.8680571573268308	-0.4240663131619019	-0.13239738607790572	1.7425196804438077	-0.38179975961112733	-0.12766147624658136	1.6056537549410674	-0.3644695238657362							-0.11404834121396729	1.5982273086310768	-0.33895152775574305	-0.11795693776861291	1.8749667955431406	-0.539185829279531	-0.10288046601283841	1.7408662159477328	-0.5639578460775826	-0.09717508595472947	1.601936705397425	-0.5985536803349606	-0.12869402082462528	1.5658417166462348	-0.628046157468685	-0.11164355956134903	1.5742630095147594	-0.646495175302978	-0.09340777945724857	1.5945820522275755	-0.5931012436243543	-0.1335453309429341	2.02888594970576	-0.48610093673692445	-0.15583876041182176	2.1038953352336773	-0.5293510994734871	-0.1556644176421784	2.025046844860535	-0.4082648469458184	-0.1619094047834706	1.9414058472945714	-0.38071569383170173	-0.18478885303740863	1.872560033157391	-0.3722624255761168	-0.11094755251575412	2.0329010923615902	-0.5700824153644392	-0.10000253549481192	1.952817091189035	-0.5916443597218812	-0.09997370786539601	1.8810673415963743	-0.6042940973442247
